<mxfile host="Electron" modified="2024-03-11T20:26:03.054Z" agent="Mozilla/5.0 (Windows NT 10.0; Win64; x64) AppleWebKit/537.36 (KHTML, like Gecko) draw.io/24.0.4 Chrome/120.0.6099.109 Electron/28.1.0 Safari/537.36" etag="SfLI7qvHPBzxl4J1HNpX" version="24.0.4" type="device">
  <diagram name="Page-1" id="NnkJCx6HzzUfipds9uM4">
    <mxGraphModel dx="1221" dy="823" grid="1" gridSize="10" guides="1" tooltips="1" connect="1" arrows="1" fold="1" page="1" pageScale="1" pageWidth="1100" pageHeight="850" math="0" shadow="0">
      <root>
        <mxCell id="0" />
        <mxCell id="1" parent="0" />
        <mxCell id="NzlfqSal4tVM719JRbTD-4" value="" style="html=1;whiteSpace=wrap;" parent="1" vertex="1">
          <mxGeometry x="230" y="50" width="850" height="1510" as="geometry" />
        </mxCell>
        <mxCell id="NzlfqSal4tVM719JRbTD-5" value="Standard User" style="shape=umlActor;verticalLabelPosition=bottom;verticalAlign=top;html=1;outlineConnect=0;" parent="1" vertex="1">
          <mxGeometry x="40" y="380" width="30" height="60" as="geometry" />
        </mxCell>
        <mxCell id="NzlfqSal4tVM719JRbTD-6" value="Administrator&lt;br&gt;(Superuser)" style="shape=umlActor;verticalLabelPosition=bottom;verticalAlign=top;html=1;outlineConnect=0;" parent="1" vertex="1">
          <mxGeometry x="1390" y="350" width="30" height="60" as="geometry" />
        </mxCell>
        <mxCell id="NzlfqSal4tVM719JRbTD-7" value="Task Management System (System Boundary)" style="text;html=1;strokeColor=none;fillColor=none;align=center;verticalAlign=middle;whiteSpace=wrap;rounded=0;" parent="1" vertex="1">
          <mxGeometry x="410" y="47" width="280" height="30" as="geometry" />
        </mxCell>
        <mxCell id="NzlfqSal4tVM719JRbTD-8" value="Add Tasks" style="ellipse;whiteSpace=wrap;html=1;" parent="1" vertex="1">
          <mxGeometry x="435" y="140" width="230" height="70" as="geometry" />
        </mxCell>
        <mxCell id="NzlfqSal4tVM719JRbTD-9" value="View Tasks" style="ellipse;whiteSpace=wrap;html=1;" parent="1" vertex="1">
          <mxGeometry x="420" y="230" width="260" height="70" as="geometry" />
        </mxCell>
        <mxCell id="NzlfqSal4tVM719JRbTD-10" value="Update Tasks" style="ellipse;whiteSpace=wrap;html=1;" parent="1" vertex="1">
          <mxGeometry x="420" y="320" width="260" height="70" as="geometry" />
        </mxCell>
        <mxCell id="NzlfqSal4tVM719JRbTD-11" value="Delete Tasks" style="ellipse;whiteSpace=wrap;html=1;" parent="1" vertex="1">
          <mxGeometry x="420" y="420" width="260" height="70" as="geometry" />
        </mxCell>
        <mxCell id="NzlfqSal4tVM719JRbTD-12" value="Authenticate Users" style="ellipse;whiteSpace=wrap;html=1;" parent="1" vertex="1">
          <mxGeometry x="430" y="520" width="240" height="70" as="geometry" />
        </mxCell>
        <mxCell id="NzlfqSal4tVM719JRbTD-14" value="" style="endArrow=none;html=1;rounded=0;entryX=0.031;entryY=0.381;entryDx=0;entryDy=0;entryPerimeter=0;" parent="1" target="NzlfqSal4tVM719JRbTD-8" edge="1" source="NzlfqSal4tVM719JRbTD-5">
          <mxGeometry width="50" height="50" relative="1" as="geometry">
            <mxPoint x="200" y="410" as="sourcePoint" />
            <mxPoint x="570" y="390" as="targetPoint" />
          </mxGeometry>
        </mxCell>
        <mxCell id="NzlfqSal4tVM719JRbTD-15" value="" style="endArrow=none;html=1;rounded=0;entryX=0;entryY=0.5;entryDx=0;entryDy=0;" parent="1" target="NzlfqSal4tVM719JRbTD-9" edge="1" source="NzlfqSal4tVM719JRbTD-5">
          <mxGeometry width="50" height="50" relative="1" as="geometry">
            <mxPoint x="200" y="410" as="sourcePoint" />
            <mxPoint x="570" y="390" as="targetPoint" />
          </mxGeometry>
        </mxCell>
        <mxCell id="NzlfqSal4tVM719JRbTD-16" value="" style="endArrow=none;html=1;rounded=0;entryX=0;entryY=0.5;entryDx=0;entryDy=0;exitX=1;exitY=0.3333333333333333;exitDx=0;exitDy=0;exitPerimeter=0;" parent="1" target="NzlfqSal4tVM719JRbTD-12" edge="1" source="NzlfqSal4tVM719JRbTD-5">
          <mxGeometry width="50" height="50" relative="1" as="geometry">
            <mxPoint x="200" y="410" as="sourcePoint" />
            <mxPoint x="570" y="390" as="targetPoint" />
          </mxGeometry>
        </mxCell>
        <mxCell id="NzlfqSal4tVM719JRbTD-17" value="" style="endArrow=none;html=1;rounded=0;exitX=1;exitY=0.5;exitDx=0;exitDy=0;" parent="1" source="NzlfqSal4tVM719JRbTD-8" target="NzlfqSal4tVM719JRbTD-6" edge="1">
          <mxGeometry width="50" height="50" relative="1" as="geometry">
            <mxPoint x="520" y="440" as="sourcePoint" />
            <mxPoint x="570" y="390" as="targetPoint" />
          </mxGeometry>
        </mxCell>
        <mxCell id="NzlfqSal4tVM719JRbTD-18" value="" style="endArrow=none;html=1;rounded=0;exitX=1;exitY=0.5;exitDx=0;exitDy=0;entryX=0.5;entryY=0.5;entryDx=0;entryDy=0;entryPerimeter=0;" parent="1" source="NzlfqSal4tVM719JRbTD-9" edge="1" target="NzlfqSal4tVM719JRbTD-6">
          <mxGeometry width="50" height="50" relative="1" as="geometry">
            <mxPoint x="520" y="440" as="sourcePoint" />
            <mxPoint x="940" y="400" as="targetPoint" />
          </mxGeometry>
        </mxCell>
        <mxCell id="NzlfqSal4tVM719JRbTD-19" value="" style="endArrow=none;html=1;rounded=0;exitX=1;exitY=0.5;exitDx=0;exitDy=0;entryX=0.5;entryY=0.5;entryDx=0;entryDy=0;entryPerimeter=0;" parent="1" source="NzlfqSal4tVM719JRbTD-10" edge="1" target="NzlfqSal4tVM719JRbTD-6">
          <mxGeometry width="50" height="50" relative="1" as="geometry">
            <mxPoint x="810" y="540" as="sourcePoint" />
            <mxPoint x="1155" y="380" as="targetPoint" />
          </mxGeometry>
        </mxCell>
        <mxCell id="NzlfqSal4tVM719JRbTD-20" value="" style="endArrow=none;html=1;rounded=0;exitX=1;exitY=0.5;exitDx=0;exitDy=0;entryX=0.5;entryY=0.5;entryDx=0;entryDy=0;entryPerimeter=0;" parent="1" source="NzlfqSal4tVM719JRbTD-11" edge="1" target="NzlfqSal4tVM719JRbTD-6">
          <mxGeometry width="50" height="50" relative="1" as="geometry">
            <mxPoint x="520" y="440" as="sourcePoint" />
            <mxPoint x="940" y="400" as="targetPoint" />
          </mxGeometry>
        </mxCell>
        <mxCell id="NzlfqSal4tVM719JRbTD-21" value="" style="endArrow=none;html=1;rounded=0;exitX=1;exitY=0.5;exitDx=0;exitDy=0;entryX=0.5;entryY=0.5;entryDx=0;entryDy=0;entryPerimeter=0;" parent="1" source="NzlfqSal4tVM719JRbTD-12" edge="1" target="NzlfqSal4tVM719JRbTD-6">
          <mxGeometry width="50" height="50" relative="1" as="geometry">
            <mxPoint x="520" y="440" as="sourcePoint" />
            <mxPoint x="940" y="400" as="targetPoint" />
          </mxGeometry>
        </mxCell>
        <mxCell id="NzlfqSal4tVM719JRbTD-25" value="Register User" style="ellipse;whiteSpace=wrap;html=1;" parent="1" vertex="1">
          <mxGeometry x="380" y="640" width="140" height="70" as="geometry" />
        </mxCell>
        <mxCell id="NzlfqSal4tVM719JRbTD-26" value="Log In" style="ellipse;whiteSpace=wrap;html=1;" parent="1" vertex="1">
          <mxGeometry x="560" y="640" width="140" height="70" as="geometry" />
        </mxCell>
        <mxCell id="NzlfqSal4tVM719JRbTD-29" value="&amp;lt;&amp;lt;Include&amp;gt;&amp;gt;" style="endArrow=open;endSize=12;dashed=1;html=1;rounded=0;entryX=0.344;entryY=0.977;entryDx=0;entryDy=0;entryPerimeter=0;exitX=0.5;exitY=0;exitDx=0;exitDy=0;" parent="1" source="NzlfqSal4tVM719JRbTD-25" target="NzlfqSal4tVM719JRbTD-12" edge="1">
          <mxGeometry width="160" relative="1" as="geometry">
            <mxPoint x="110" y="660" as="sourcePoint" />
            <mxPoint x="270" y="660" as="targetPoint" />
          </mxGeometry>
        </mxCell>
        <mxCell id="NzlfqSal4tVM719JRbTD-31" value="&amp;lt;&amp;lt;Include&amp;gt;&amp;gt;" style="endArrow=open;endSize=12;dashed=1;html=1;rounded=0;entryX=0.54;entryY=1.049;entryDx=0;entryDy=0;entryPerimeter=0;exitX=0.5;exitY=0;exitDx=0;exitDy=0;" parent="1" source="NzlfqSal4tVM719JRbTD-26" target="NzlfqSal4tVM719JRbTD-12" edge="1">
          <mxGeometry width="160" relative="1" as="geometry">
            <mxPoint x="460" y="650" as="sourcePoint" />
            <mxPoint x="523" y="598" as="targetPoint" />
          </mxGeometry>
        </mxCell>
        <mxCell id="um8BAeP9xLEFH55dFGkB-1" value="Setup Task Management System" style="ellipse;whiteSpace=wrap;html=1;" vertex="1" parent="1">
          <mxGeometry x="770" y="570" width="260" height="70" as="geometry" />
        </mxCell>
        <mxCell id="um8BAeP9xLEFH55dFGkB-2" value="View Users" style="ellipse;whiteSpace=wrap;html=1;" vertex="1" parent="1">
          <mxGeometry x="770" y="660" width="260" height="70" as="geometry" />
        </mxCell>
        <mxCell id="um8BAeP9xLEFH55dFGkB-3" value="Change User Type" style="ellipse;whiteSpace=wrap;html=1;" vertex="1" parent="1">
          <mxGeometry x="770" y="740" width="260" height="70" as="geometry" />
        </mxCell>
        <mxCell id="um8BAeP9xLEFH55dFGkB-4" value="Change User Password" style="ellipse;whiteSpace=wrap;html=1;" vertex="1" parent="1">
          <mxGeometry x="770" y="820" width="260" height="70" as="geometry" />
        </mxCell>
        <mxCell id="um8BAeP9xLEFH55dFGkB-5" value="Delete User" style="ellipse;whiteSpace=wrap;html=1;" vertex="1" parent="1">
          <mxGeometry x="770" y="910" width="260" height="70" as="geometry" />
        </mxCell>
        <mxCell id="um8BAeP9xLEFH55dFGkB-6" value="Unblock User" style="ellipse;whiteSpace=wrap;html=1;" vertex="1" parent="1">
          <mxGeometry x="770" y="990" width="260" height="70" as="geometry" />
        </mxCell>
        <mxCell id="um8BAeP9xLEFH55dFGkB-7" value="Block User" style="ellipse;whiteSpace=wrap;html=1;" vertex="1" parent="1">
          <mxGeometry x="770" y="1220" width="260" height="70" as="geometry" />
        </mxCell>
        <mxCell id="um8BAeP9xLEFH55dFGkB-8" value="Reset Task Management System" style="ellipse;whiteSpace=wrap;html=1;" vertex="1" parent="1">
          <mxGeometry x="770" y="1100" width="260" height="70" as="geometry" />
        </mxCell>
        <mxCell id="um8BAeP9xLEFH55dFGkB-9" value="Change Username" style="ellipse;whiteSpace=wrap;html=1;" vertex="1" parent="1">
          <mxGeometry x="270" y="1020" width="260" height="70" as="geometry" />
        </mxCell>
        <mxCell id="um8BAeP9xLEFH55dFGkB-10" value="View Account Details" style="ellipse;whiteSpace=wrap;html=1;" vertex="1" parent="1">
          <mxGeometry x="260" y="920" width="260" height="70" as="geometry" />
        </mxCell>
        <mxCell id="um8BAeP9xLEFH55dFGkB-11" value="Change Password" style="ellipse;whiteSpace=wrap;html=1;" vertex="1" parent="1">
          <mxGeometry x="270" y="1130" width="260" height="70" as="geometry" />
        </mxCell>
        <mxCell id="um8BAeP9xLEFH55dFGkB-12" value="Delete Account" style="ellipse;whiteSpace=wrap;html=1;" vertex="1" parent="1">
          <mxGeometry x="270" y="1220" width="260" height="70" as="geometry" />
        </mxCell>
        <mxCell id="um8BAeP9xLEFH55dFGkB-13" value="Task Management System" style="shape=umlActor;verticalLabelPosition=bottom;verticalAlign=top;html=1;outlineConnect=0;" vertex="1" parent="1">
          <mxGeometry x="1210" y="1290" width="30" height="60" as="geometry" />
        </mxCell>
        <mxCell id="um8BAeP9xLEFH55dFGkB-14" value="" style="endArrow=none;html=1;rounded=0;exitX=1;exitY=0.5;exitDx=0;exitDy=0;entryX=0.5;entryY=0.5;entryDx=0;entryDy=0;entryPerimeter=0;" edge="1" parent="1" source="um8BAeP9xLEFH55dFGkB-1" target="NzlfqSal4tVM719JRbTD-6">
          <mxGeometry width="50" height="50" relative="1" as="geometry">
            <mxPoint x="820" y="800" as="sourcePoint" />
            <mxPoint x="1140" y="380" as="targetPoint" />
          </mxGeometry>
        </mxCell>
        <mxCell id="um8BAeP9xLEFH55dFGkB-15" value="" style="endArrow=none;html=1;rounded=0;exitX=1;exitY=0.5;exitDx=0;exitDy=0;entryX=0.5;entryY=0.5;entryDx=0;entryDy=0;entryPerimeter=0;" edge="1" parent="1" source="um8BAeP9xLEFH55dFGkB-2" target="NzlfqSal4tVM719JRbTD-6">
          <mxGeometry width="50" height="50" relative="1" as="geometry">
            <mxPoint x="1040" y="610" as="sourcePoint" />
            <mxPoint x="1165" y="390" as="targetPoint" />
          </mxGeometry>
        </mxCell>
        <mxCell id="um8BAeP9xLEFH55dFGkB-16" value="" style="endArrow=none;html=1;rounded=0;exitX=1;exitY=0.5;exitDx=0;exitDy=0;entryX=0.5;entryY=0.5;entryDx=0;entryDy=0;entryPerimeter=0;" edge="1" parent="1" source="um8BAeP9xLEFH55dFGkB-3" target="NzlfqSal4tVM719JRbTD-6">
          <mxGeometry width="50" height="50" relative="1" as="geometry">
            <mxPoint x="1040" y="705" as="sourcePoint" />
            <mxPoint x="1165" y="390" as="targetPoint" />
          </mxGeometry>
        </mxCell>
        <mxCell id="um8BAeP9xLEFH55dFGkB-17" value="" style="endArrow=none;html=1;rounded=0;exitX=1;exitY=0.5;exitDx=0;exitDy=0;entryX=0.5;entryY=0.5;entryDx=0;entryDy=0;entryPerimeter=0;" edge="1" parent="1" source="um8BAeP9xLEFH55dFGkB-4" target="NzlfqSal4tVM719JRbTD-6">
          <mxGeometry width="50" height="50" relative="1" as="geometry">
            <mxPoint x="1040" y="785" as="sourcePoint" />
            <mxPoint x="1165" y="390" as="targetPoint" />
          </mxGeometry>
        </mxCell>
        <mxCell id="um8BAeP9xLEFH55dFGkB-19" value="" style="endArrow=none;html=1;rounded=0;exitX=1;exitY=0.5;exitDx=0;exitDy=0;entryX=0.5;entryY=0.5;entryDx=0;entryDy=0;entryPerimeter=0;" edge="1" parent="1" source="um8BAeP9xLEFH55dFGkB-5" target="NzlfqSal4tVM719JRbTD-6">
          <mxGeometry width="50" height="50" relative="1" as="geometry">
            <mxPoint x="1040" y="865" as="sourcePoint" />
            <mxPoint x="1415" y="390" as="targetPoint" />
          </mxGeometry>
        </mxCell>
        <mxCell id="um8BAeP9xLEFH55dFGkB-20" value="" style="endArrow=none;html=1;rounded=0;exitX=1;exitY=0.5;exitDx=0;exitDy=0;" edge="1" parent="1" source="um8BAeP9xLEFH55dFGkB-6">
          <mxGeometry width="50" height="50" relative="1" as="geometry">
            <mxPoint x="1040" y="955" as="sourcePoint" />
            <mxPoint x="1400" y="380" as="targetPoint" />
          </mxGeometry>
        </mxCell>
        <mxCell id="um8BAeP9xLEFH55dFGkB-21" value="" style="endArrow=none;html=1;rounded=0;exitX=1;exitY=0.5;exitDx=0;exitDy=0;entryX=0.5;entryY=0.5;entryDx=0;entryDy=0;entryPerimeter=0;" edge="1" parent="1" source="um8BAeP9xLEFH55dFGkB-7" target="NzlfqSal4tVM719JRbTD-6">
          <mxGeometry width="50" height="50" relative="1" as="geometry">
            <mxPoint x="1040" y="1030" as="sourcePoint" />
            <mxPoint x="1410" y="390" as="targetPoint" />
          </mxGeometry>
        </mxCell>
        <mxCell id="um8BAeP9xLEFH55dFGkB-22" value="Block User after 3 failed login attempts" style="ellipse;whiteSpace=wrap;html=1;" vertex="1" parent="1">
          <mxGeometry x="780" y="1370" width="260" height="70" as="geometry" />
        </mxCell>
        <mxCell id="um8BAeP9xLEFH55dFGkB-24" value="" style="endArrow=none;html=1;rounded=0;entryX=0.5;entryY=0.5;entryDx=0;entryDy=0;entryPerimeter=0;exitX=1;exitY=0.5;exitDx=0;exitDy=0;" edge="1" parent="1" source="um8BAeP9xLEFH55dFGkB-22" target="um8BAeP9xLEFH55dFGkB-13">
          <mxGeometry width="50" height="50" relative="1" as="geometry">
            <mxPoint x="890" y="1170" as="sourcePoint" />
            <mxPoint x="940" y="1120" as="targetPoint" />
          </mxGeometry>
        </mxCell>
        <mxCell id="um8BAeP9xLEFH55dFGkB-25" value="Extends" style="endArrow=block;endSize=16;endFill=0;html=1;rounded=0;exitX=0.5;exitY=0;exitDx=0;exitDy=0;" edge="1" parent="1" source="um8BAeP9xLEFH55dFGkB-22" target="um8BAeP9xLEFH55dFGkB-7">
          <mxGeometry width="160" relative="1" as="geometry">
            <mxPoint x="820" y="1210" as="sourcePoint" />
            <mxPoint x="980" y="1210" as="targetPoint" />
          </mxGeometry>
        </mxCell>
        <mxCell id="um8BAeP9xLEFH55dFGkB-26" value="" style="endArrow=none;html=1;rounded=0;entryX=0.5;entryY=0.5;entryDx=0;entryDy=0;entryPerimeter=0;exitX=1;exitY=0.5;exitDx=0;exitDy=0;jumpStyle=arc;" edge="1" parent="1" source="um8BAeP9xLEFH55dFGkB-1" target="um8BAeP9xLEFH55dFGkB-13">
          <mxGeometry width="50" height="50" relative="1" as="geometry">
            <mxPoint x="1110" y="780" as="sourcePoint" />
            <mxPoint x="1235" y="1330" as="targetPoint" />
          </mxGeometry>
        </mxCell>
        <mxCell id="um8BAeP9xLEFH55dFGkB-27" value="Email new password" style="ellipse;whiteSpace=wrap;html=1;" vertex="1" parent="1">
          <mxGeometry x="490" y="870" width="260" height="70" as="geometry" />
        </mxCell>
        <mxCell id="um8BAeP9xLEFH55dFGkB-28" value="Extends" style="endArrow=block;endSize=16;endFill=0;html=1;rounded=0;" edge="1" parent="1" source="um8BAeP9xLEFH55dFGkB-27" target="um8BAeP9xLEFH55dFGkB-4">
          <mxGeometry width="160" relative="1" as="geometry">
            <mxPoint x="920" y="1380" as="sourcePoint" />
            <mxPoint x="913" y="1300" as="targetPoint" />
          </mxGeometry>
        </mxCell>
        <mxCell id="um8BAeP9xLEFH55dFGkB-29" value="" style="endArrow=none;html=1;rounded=0;jumpStyle=arc;" edge="1" parent="1" source="um8BAeP9xLEFH55dFGkB-27" target="um8BAeP9xLEFH55dFGkB-13">
          <mxGeometry width="50" height="50" relative="1" as="geometry">
            <mxPoint x="1050" y="1415" as="sourcePoint" />
            <mxPoint x="1235" y="1330" as="targetPoint" />
          </mxGeometry>
        </mxCell>
        <mxCell id="um8BAeP9xLEFH55dFGkB-30" value="Email Root Password" style="ellipse;whiteSpace=wrap;html=1;" vertex="1" parent="1">
          <mxGeometry x="490" y="750" width="260" height="70" as="geometry" />
        </mxCell>
        <mxCell id="um8BAeP9xLEFH55dFGkB-32" value="Extends" style="endArrow=block;endSize=16;endFill=0;html=1;rounded=0;entryX=0.094;entryY=0.762;entryDx=0;entryDy=0;entryPerimeter=0;" edge="1" parent="1" source="um8BAeP9xLEFH55dFGkB-30" target="um8BAeP9xLEFH55dFGkB-1">
          <mxGeometry width="160" relative="1" as="geometry">
            <mxPoint x="739" y="896" as="sourcePoint" />
            <mxPoint x="802" y="884" as="targetPoint" />
          </mxGeometry>
        </mxCell>
        <mxCell id="um8BAeP9xLEFH55dFGkB-33" value="" style="endArrow=none;html=1;rounded=0;jumpStyle=arc;" edge="1" parent="1" source="um8BAeP9xLEFH55dFGkB-30">
          <mxGeometry width="50" height="50" relative="1" as="geometry">
            <mxPoint x="678" y="948" as="sourcePoint" />
            <mxPoint x="1220" y="1320" as="targetPoint" />
          </mxGeometry>
        </mxCell>
        <mxCell id="um8BAeP9xLEFH55dFGkB-34" value="Ensure password meets requirements" style="ellipse;whiteSpace=wrap;html=1;" vertex="1" parent="1">
          <mxGeometry x="250" y="800" width="260" height="70" as="geometry" />
        </mxCell>
        <mxCell id="um8BAeP9xLEFH55dFGkB-35" value="Extends" style="endArrow=block;endSize=16;endFill=0;html=1;rounded=0;" edge="1" parent="1" source="um8BAeP9xLEFH55dFGkB-34" target="NzlfqSal4tVM719JRbTD-25">
          <mxGeometry width="160" relative="1" as="geometry">
            <mxPoint x="666" y="761" as="sourcePoint" />
            <mxPoint x="804" y="633" as="targetPoint" />
          </mxGeometry>
        </mxCell>
        <mxCell id="um8BAeP9xLEFH55dFGkB-36" value="" style="endArrow=none;html=1;rounded=0;jumpStyle=arc;" edge="1" parent="1" source="um8BAeP9xLEFH55dFGkB-34">
          <mxGeometry width="50" height="50" relative="1" as="geometry">
            <mxPoint x="678" y="948" as="sourcePoint" />
            <mxPoint x="1220" y="1320" as="targetPoint" />
          </mxGeometry>
        </mxCell>
        <mxCell id="um8BAeP9xLEFH55dFGkB-37" value="" style="endArrow=none;html=1;rounded=0;entryX=0;entryY=0.5;entryDx=0;entryDy=0;exitX=1;exitY=0.3333333333333333;exitDx=0;exitDy=0;exitPerimeter=0;" edge="1" parent="1" source="NzlfqSal4tVM719JRbTD-5" target="um8BAeP9xLEFH55dFGkB-10">
          <mxGeometry width="50" height="50" relative="1" as="geometry">
            <mxPoint x="80" y="410" as="sourcePoint" />
            <mxPoint x="440" y="565" as="targetPoint" />
          </mxGeometry>
        </mxCell>
        <mxCell id="um8BAeP9xLEFH55dFGkB-38" value="" style="endArrow=none;html=1;rounded=0;entryX=0;entryY=0.5;entryDx=0;entryDy=0;exitX=1;exitY=0.3333333333333333;exitDx=0;exitDy=0;exitPerimeter=0;" edge="1" parent="1" source="NzlfqSal4tVM719JRbTD-5" target="um8BAeP9xLEFH55dFGkB-9">
          <mxGeometry width="50" height="50" relative="1" as="geometry">
            <mxPoint x="80" y="410" as="sourcePoint" />
            <mxPoint x="270" y="965" as="targetPoint" />
          </mxGeometry>
        </mxCell>
        <mxCell id="um8BAeP9xLEFH55dFGkB-40" value="" style="endArrow=none;html=1;rounded=0;entryX=0;entryY=0.5;entryDx=0;entryDy=0;exitX=1;exitY=0.3333333333333333;exitDx=0;exitDy=0;exitPerimeter=0;" edge="1" parent="1" source="NzlfqSal4tVM719JRbTD-5" target="um8BAeP9xLEFH55dFGkB-11">
          <mxGeometry width="50" height="50" relative="1" as="geometry">
            <mxPoint x="80" y="410" as="sourcePoint" />
            <mxPoint x="280" y="1065" as="targetPoint" />
          </mxGeometry>
        </mxCell>
        <mxCell id="um8BAeP9xLEFH55dFGkB-41" value="" style="endArrow=none;html=1;rounded=0;entryX=0;entryY=0.5;entryDx=0;entryDy=0;" edge="1" parent="1" target="um8BAeP9xLEFH55dFGkB-12">
          <mxGeometry width="50" height="50" relative="1" as="geometry">
            <mxPoint x="70" y="400" as="sourcePoint" />
            <mxPoint x="280" y="1186" as="targetPoint" />
          </mxGeometry>
        </mxCell>
        <mxCell id="um8BAeP9xLEFH55dFGkB-42" value="" style="endArrow=none;html=1;rounded=0;exitX=1;exitY=0.5;exitDx=0;exitDy=0;entryX=0.5;entryY=0.5;entryDx=0;entryDy=0;entryPerimeter=0;" edge="1" parent="1" source="um8BAeP9xLEFH55dFGkB-34" target="NzlfqSal4tVM719JRbTD-6">
          <mxGeometry width="50" height="50" relative="1" as="geometry">
            <mxPoint x="1040" y="1035" as="sourcePoint" />
            <mxPoint x="1410" y="390" as="targetPoint" />
          </mxGeometry>
        </mxCell>
        <mxCell id="um8BAeP9xLEFH55dFGkB-43" value="" style="endArrow=none;html=1;rounded=0;exitX=1;exitY=0.5;exitDx=0;exitDy=0;entryX=0.5;entryY=0.5;entryDx=0;entryDy=0;entryPerimeter=0;jumpStyle=arc;" edge="1" parent="1" source="um8BAeP9xLEFH55dFGkB-10" target="NzlfqSal4tVM719JRbTD-6">
          <mxGeometry width="50" height="50" relative="1" as="geometry">
            <mxPoint x="1040" y="865" as="sourcePoint" />
            <mxPoint x="1415" y="390" as="targetPoint" />
          </mxGeometry>
        </mxCell>
        <mxCell id="um8BAeP9xLEFH55dFGkB-44" value="" style="endArrow=none;html=1;rounded=0;exitX=1;exitY=0.5;exitDx=0;exitDy=0;entryX=0.5;entryY=0.5;entryDx=0;entryDy=0;entryPerimeter=0;jumpStyle=arc;" edge="1" parent="1" source="um8BAeP9xLEFH55dFGkB-9" target="NzlfqSal4tVM719JRbTD-6">
          <mxGeometry width="50" height="50" relative="1" as="geometry">
            <mxPoint x="530" y="965" as="sourcePoint" />
            <mxPoint x="1415" y="390" as="targetPoint" />
          </mxGeometry>
        </mxCell>
        <mxCell id="um8BAeP9xLEFH55dFGkB-45" value="" style="endArrow=none;html=1;rounded=0;exitX=1;exitY=0.5;exitDx=0;exitDy=0;entryX=0.5;entryY=0.5;entryDx=0;entryDy=0;entryPerimeter=0;jumpStyle=arc;" edge="1" parent="1" source="um8BAeP9xLEFH55dFGkB-11" target="NzlfqSal4tVM719JRbTD-6">
          <mxGeometry width="50" height="50" relative="1" as="geometry">
            <mxPoint x="540" y="1065" as="sourcePoint" />
            <mxPoint x="1415" y="390" as="targetPoint" />
          </mxGeometry>
        </mxCell>
        <mxCell id="um8BAeP9xLEFH55dFGkB-46" value="" style="endArrow=none;html=1;rounded=0;exitX=1;exitY=0.5;exitDx=0;exitDy=0;entryX=0.5;entryY=0.5;entryDx=0;entryDy=0;entryPerimeter=0;jumpStyle=arc;" edge="1" parent="1" source="um8BAeP9xLEFH55dFGkB-12" target="NzlfqSal4tVM719JRbTD-6">
          <mxGeometry width="50" height="50" relative="1" as="geometry">
            <mxPoint x="540" y="1175" as="sourcePoint" />
            <mxPoint x="1415" y="390" as="targetPoint" />
          </mxGeometry>
        </mxCell>
      </root>
    </mxGraphModel>
  </diagram>
</mxfile>
